<?xml version="1.0" encoding="UTF-8" standalone="no"?>
<!-- Created with Inkscape (http://www.inkscape.org/) -->

<svg
   version="1.1"
   id="svg1"
   width="4912"
   height="3212"
   viewBox="0 0 4912 3212"
   sodipodi:docname="hero-bg.png"
   inkscape:version="1.3.2 (091e20e, 2023-11-25)"
   inkscape:export-filename="herobg.png"
   inkscape:export-xdpi="96"
   inkscape:export-ydpi="96"
   xmlns:inkscape="http://www.inkscape.org/namespaces/inkscape"
   xmlns:sodipodi="http://sodipodi.sourceforge.net/DTD/sodipodi-0.dtd"
   xmlns="http://www.w3.org/2000/svg"
   xmlns:svg="http://www.w3.org/2000/svg">
  <defs
     id="defs1" />
  <sodipodi:namedview
     id="namedview1"
     pagecolor="#ffffff"
     bordercolor="#000000"
     borderopacity="0.25"
     inkscape:showpageshadow="2"
     inkscape:pageopacity="0.0"
     inkscape:pagecheckerboard="0"
     inkscape:deskcolor="#d1d1d1"
     showgrid="false"
     inkscape:zoom="0.063580478"
     inkscape:cx="1391.9367"
     inkscape:cy="1509.8974"
     inkscape:window-width="1312"
     inkscape:window-height="449"
     inkscape:window-x="0"
     inkscape:window-y="25"
     inkscape:window-maximized="0"
     inkscape:current-layer="layer1" />
  <g
     inkscape:groupmode="layer"
     id="layer1"
     inkscape:label="Herobg">
    <path
       sodipodi:type="star"
       style="fill:#ff0000;fill-rule:evenodd"
       id="path1"
       inkscape:flatsided="false"
       sodipodi:sides="5"
       sodipodi:cx="2255.5171"
       sodipodi:cy="1011.0939"
       sodipodi:r1="905.33496"
       sodipodi:r2="1052.7151"
       sodipodi:arg1="0.97459719"
       sodipodi:arg2="1.6029157"
       inkscape:rounded="0.2"
       inkscape:randomized="0.214"
       d="m 2863.6585,1771.4158 c -95.6761,96.1319 -518.1531,201.5075 -626.4757,227.2207 -108.3225,25.7131 -521.5071,-5.3794 -602.2602,-114.8015 -80.7531,-109.4221 -182.2196,-473.7921 -238.7485,-584.8899 -56.529,-111.0978 35.9008,-590.36156 41.6141,-723.75877 5.7133,-133.3972 226.0776,-523.372014 307.3451,-630.527379 81.2675,-107.155371 628.3287,275.916349 751.8985,240.842339 123.5698,-35.07402 393.0066,-294.48138 475.1666,-216.399818 82.16,78.081565 116.7983,567.083528 176.3727,685.602418 59.5744,118.51888 151.1204,535.64561 131.2843,669.50951 -19.8361,133.8639 -320.5208,351.0705 -416.1969,447.2024 z"
       inkscape:transform-center-x="26.611232"
       inkscape:transform-center-y="134.67789"
       transform="matrix(-2.5472824,0,0,-1.48753,8385.1105,3072.7602)" />
  </g>
</svg>
