<?xml version="1.0" encoding="UTF-8" standalone="no"?>
<!-- Created with Inkscape (http://www.inkscape.org/) -->

<svg
   version="1.1"
   id="svg1"
   width="4912"
   height="3212"
   viewBox="0 0 4912 3212"
   sodipodi:docname="hero-bg.svg"
   inkscape:version="1.3.2 (091e20e, 2023-11-25)"
   inkscape:export-filename="herobg.png"
   inkscape:export-xdpi="96"
   inkscape:export-ydpi="96"
   xmlns:inkscape="http://www.inkscape.org/namespaces/inkscape"
   xmlns:sodipodi="http://sodipodi.sourceforge.net/DTD/sodipodi-0.dtd"
   xmlns="http://www.w3.org/2000/svg"
   xmlns:svg="http://www.w3.org/2000/svg">
  <defs
     id="defs1" />
  <sodipodi:namedview
     id="namedview1"
     pagecolor="#ffffff"
     bordercolor="#000000"
     borderopacity="0.25"
     inkscape:showpageshadow="2"
     inkscape:pageopacity="0.0"
     inkscape:pagecheckerboard="0"
     inkscape:deskcolor="#d1d1d1"
     showgrid="false"
     inkscape:zoom="0.063580478"
     inkscape:cx="1384.0726"
     inkscape:cy="1509.8974"
     inkscape:window-width="1312"
     inkscape:window-height="449"
     inkscape:window-x="0"
     inkscape:window-y="25"
     inkscape:window-maximized="0"
     inkscape:current-layer="layer1" />
  <g
     inkscape:groupmode="layer"
     id="layer1"
     inkscape:label="Herobg">
    <path
       sodipodi:type="star"
       style="fill:#ff0000;fill-rule:evenodd"
       id="path1"
       inkscape:flatsided="false"
       sodipodi:sides="8"
       sodipodi:cx="2255.5171"
       sodipodi:cy="1011.0939"
       sodipodi:r1="905.33496"
       sodipodi:r2="1052.7151"
       sodipodi:arg1="0.97459719"
       sodipodi:arg2="1.3672963"
       inkscape:rounded="0.2"
       inkscape:randomized="0.214"
       d="m 2863.6585,1771.4158 c -62.9165,63.2163 -194.488,419.7846 -281.7241,428.974 -87.2361,9.1894 -459.5876,-214.1965 -534.9895,-207.2005 -75.4021,6.9961 -158.6834,-44.2514 -225.3554,-82.583 -66.672,-38.3316 -263.2878,-305.3027 -291.5484,-389.8974 -28.2605,-84.5946 -168.3198,-256.694 -198.7687,-324.1263 -30.4488,-67.4323 -125.768,-330.80107 -104.4834,-418.66796 21.2846,-87.8669 16.4358,-136.26976 54.2636,-207.61869 37.8279,-71.34891 335.8191,-53.46178 410.1699,-90.9395 74.3509,-37.47773 451.0068,-698.0086 528.9815,-711.21837 77.9747,-13.20976 223.8838,180.496615 295.1517,211.092973 71.2679,30.5963613 152.6259,318.169717 217.9358,360.934887 65.3099,42.76517 277.754,32.77783 298.9679,111.54552 21.214,78.7677 427.5765,57.73949 446.4971,130.69361 18.9206,72.95411 -337.1301,733.18413 -346.0859,819.34163 -8.9557,86.1575 183.9174,218.0713 141.1578,278.7296 -42.7597,60.6583 -347.2534,27.7232 -410.1699,90.9395 z"
       inkscape:transform-center-x="26.611232"
       inkscape:transform-center-y="134.67789"
       transform="matrix(-2.5472824,0,0,-1.48753,8385.1105,3072.7602)" />
  </g>
</svg>
