<svg xmlns="http://www.w3.org/2000/svg" version="1.1" xmlns:xlink="http://www.w3.org/1999/xlink" xmlns:svgjs="http://svgjs.dev/svgjs" width="2000" height="1247" viewBox="0 0 2000 1247"><g transform="matrix(1,0,0,1,-1.2121212121212466,0.504858299595071)"><svg viewBox="0 0 396 247" data-background-color="#f9f6ed" preserveAspectRatio="xMidYMid meet" height="1247" width="2000" xmlns="http://www.w3.org/2000/svg" xmlns:xlink="http://www.w3.org/1999/xlink"><g id="tight-bounds" transform="matrix(1,0,0,1,0.2400000000000091,-0.09999999999999432)"><svg viewBox="0 0 395.52 247.2" height="247.2" width="395.52"><g><svg></svg></g><g><svg viewBox="0 0 395.52 247.2" height="247.2" width="395.52"><g><path d="M55.039 247.2l26.403-45.732 2.38 0-25.148 43.558h278.172l-25.148-43.558 2.38 0 26.403 45.732zM197.76 0l26.403 45.732-2.38 0-24.023-41.61-24.023 41.61-2.38 0z" fill="#21272d" fill-rule="nonzero" stroke="none" stroke-width="1" stroke-linecap="butt" stroke-linejoin="miter" stroke-miterlimit="10" stroke-dasharray="" stroke-dashoffset="0" font-family="none" font-weight="none" font-size="none" text-anchor="none" style="mix-blend-mode: normal" data-fill-palette-color="tertiary"></path></g><g transform="matrix(1,0,0,1,78.57379105024341,67.97999999999999)"><svg viewBox="0 0 238.37241789951315 111.24" height="111.24" width="238.37241789951315"><g><svg viewBox="0 0 395.52 184.57523394567983" height="111.24" width="238.37241789951315"><g transform="matrix(1,0,0,1,0,77.17530766256588)"><svg viewBox="0 0 395.52 107.39992628311393" height="107.39992628311393" width="395.52"><g id="textblocktransform"><svg viewBox="0 0 395.52 107.39992628311393" height="107.39992628311393" width="395.52" id="textblock"><g><svg viewBox="0 0 395.52 57.92638828349751" height="57.92638828349751" width="395.52"><g transform="matrix(1,0,0,1,0,0)"><svg width="395.52" viewBox="5.44 -40.5 280.04 41.01" height="57.92638828349751" data-palette-color="#21272d"><path d="M5.44 0L5.44-38.16 13.18-38.16 27.05-24.24 40.92-38.16 48.66-38.16 48.66 0 40.92 0 40.92-27.44 27.05-14.09 13.18-27.44 13.18 0 5.44 0ZM56.88-14.4L56.88-14.4Q56.88-17.5 58.14-20.21 59.4-22.92 61.73-24.95 64.06-26.98 67.37-28.15 70.68-29.32 74.8-29.32L74.8-29.32Q78.93-29.32 82.24-28.15 85.54-26.98 87.88-24.95 90.21-22.92 91.46-20.21 92.72-17.5 92.72-14.4L92.72-14.4Q92.72-11.3 91.46-8.59 90.21-5.88 87.88-3.86 85.54-1.83 82.24-0.66 78.93 0.51 74.8 0.51L74.8 0.51Q70.68 0.51 67.37-0.66 64.06-1.83 61.73-3.86 59.4-5.88 58.14-8.59 56.88-11.3 56.88-14.4ZM64.48-14.4L64.48-14.4Q64.48-12.67 65.17-11.12 65.87-9.57 67.2-8.39 68.53-7.2 70.44-6.51 72.36-5.81 74.8-5.81L74.8-5.81Q77.24-5.81 79.16-6.51 81.08-7.2 82.41-8.39 83.74-9.57 84.43-11.12 85.13-12.67 85.13-14.4L85.13-14.4Q85.13-16.14 84.43-17.7 83.74-19.26 82.41-20.45 81.08-21.63 79.16-22.33 77.24-23.02 74.8-23.02L74.8-23.02Q72.36-23.02 70.44-22.33 68.53-21.63 67.2-20.45 65.87-19.26 65.17-17.7 64.48-16.14 64.48-14.4ZM100.02 0L100.02-28.81 107.25-28.81 107.25-24.66Q109.64-26.44 112.3-27.73 114.96-29.03 117.6-29.71L117.6-29.71 119.72-23.1Q115.55-22.68 112.39-21.23 109.22-19.78 107.25-17.14L107.25-17.14 107.25 0 100.02 0ZM129.44 0L129.44-23.39 122.48-23.39 122.48-28.81 129.44-28.81 129.44-37.77 136.66-37.77 136.66-28.81 143.62-28.81 143.62-23.39 136.66-23.39 136.66 0 129.44 0ZM148.31-14.4L148.31-14.4Q148.31-17.5 149.56-20.21 150.82-22.92 153.15-24.95 155.48-26.98 158.79-28.15 162.1-29.32 166.23-29.32L166.23-29.32Q170.35-29.32 173.66-28.15 176.97-26.98 179.3-24.95 181.63-22.92 182.89-20.21 184.15-17.5 184.15-14.4L184.15-14.4Q184.15-11.3 182.89-8.59 181.63-5.88 179.3-3.86 176.97-1.83 173.66-0.66 170.35 0.51 166.23 0.51L166.23 0.51Q162.1 0.51 158.79-0.66 155.48-1.83 153.15-3.86 150.82-5.88 149.56-8.59 148.31-11.3 148.31-14.4ZM155.9-14.4L155.9-14.4Q155.9-12.67 156.59-11.12 157.29-9.57 158.62-8.39 159.95-7.2 161.87-6.51 163.78-5.81 166.23-5.81L166.23-5.81Q168.67-5.81 170.58-6.51 172.5-7.2 173.83-8.39 175.16-9.57 175.86-11.12 176.55-12.67 176.55-14.4L176.55-14.4Q176.55-16.14 175.86-17.7 175.16-19.26 173.83-20.45 172.5-21.63 170.58-22.33 168.67-23.02 166.23-23.02L166.23-23.02Q163.78-23.02 161.87-22.33 159.95-21.63 158.62-20.45 157.29-19.26 156.59-17.7 155.9-16.14 155.9-14.4ZM191.44 0L191.44-28.81 198.67-28.81 198.67-26.37Q201.55-28 204.17-28.66 206.8-29.32 209.31-29.32L209.31-29.32Q212.61-29.32 215.42-28.36 218.22-27.39 220.28-25.49 222.33-23.58 223.49-20.74 224.65-17.9 224.65-14.16L224.65-14.16 224.65 0 217.44 0 217.44-12.99Q217.44-15.36 216.77-17.22 216.1-19.09 214.84-20.37 213.59-21.66 211.79-22.33 210-23 207.78-23L207.78-23Q206.6-23 205.37-22.75 204.14-22.51 202.95-22.06 201.77-21.61 200.67-20.94 199.57-20.26 198.67-19.41L198.67-19.41 198.67 0 191.44 0ZM236.31-23.36L236.31-40.5 242.59-40.5 242.59-23.36 236.31-23.36ZM252.47-3.37L255.6-8.84Q258.53-7.08 262.04-6.25 265.56-5.42 269.25-5.42L269.25-5.42Q271.74-5.42 273.4-5.76 275.06-6.1 276.06-6.64 277.06-7.18 277.47-7.86 277.89-8.54 277.89-9.25L277.89-9.25Q277.89-10.28 277-11.01 276.11-11.74 274.05-11.74L274.05-11.74Q273.1-11.74 272-11.62 270.91-11.5 269.7-11.36 268.49-11.23 267.18-11.11 265.88-10.99 264.53-10.99L264.53-10.99Q261.6-10.99 259.54-11.62 257.48-12.26 256.18-13.35 254.89-14.45 254.3-15.95 253.72-17.46 253.72-19.19L253.72-19.19Q253.72-21.39 254.74-23.24 255.77-25.1 257.67-26.45 259.58-27.81 262.27-28.56 264.97-29.32 268.29-29.32L268.29-29.32Q270.03-29.32 271.92-29.11 273.81-28.91 275.64-28.56 277.47-28.22 279.16-27.77 280.84-27.32 282.14-26.81L282.14-26.81 279.87-21.19Q277.11-22.22 274.36-22.81 271.61-23.41 268.71-23.41L268.71-23.41Q266.68-23.41 265.28-23.11 263.87-22.8 263-22.3 262.12-21.8 261.71-21.15 261.31-20.51 261.31-19.8L261.31-19.8Q261.31-19.29 261.52-18.87 261.73-18.46 262.2-18.15 262.68-17.85 263.45-17.69 264.22-17.53 265.34-17.53L265.34-17.53Q266.36-17.53 267.51-17.65 268.66-17.77 269.9-17.91 271.15-18.04 272.48-18.16 273.81-18.29 275.2-18.29L275.2-18.29Q277.79-18.29 279.73-17.68 281.67-17.07 282.94-15.97 284.21-14.87 284.85-13.38 285.48-11.89 285.48-10.13L285.48-10.13Q285.48-7.86 284.43-5.91 283.38-3.96 281.31-2.53 279.23-1.1 276.14-0.29 273.05 0.51 269 0.51L269 0.51Q266.51 0.51 264.19 0.21 261.87-0.1 259.77-0.62 257.67-1.15 255.83-1.86 253.99-2.56 252.47-3.37L252.47-3.37Z" opacity="1" transform="matrix(1,0,0,1,0,0)" fill="#21272d" class="wordmark-text-0" data-fill-palette-color="primary" id="text-0"></path></svg></g></svg></g><g transform="matrix(1,0,0,1,0,71.60141832391247)"><svg viewBox="0 0 395.52 35.79850795920146" height="35.79850795920146" width="395.52"><g transform="matrix(1,0,0,1,0,0)"><svg width="395.52" viewBox="3.85 -35.9 518.5433302511944 44.6" height="35.79850795920146" data-palette-color="#21272d"><g class="slogan-text-1" data-fill-palette-color="secondary" id="text-1"><path d="M7.9-33.7L7.9-3.65 22.25-3.65 22.25 0 3.85 0 3.85-33.7 7.9-33.7ZM55.03-11.4L55.03-25.35 58.98-25.35 58.98 0 55.03 0 55.03-4.4Q53.03 0.3 47.08 0.3L47.08 0.3Q43.33 0.3 41.15-1.93 38.98-4.15 38.98-7.9L38.98-7.9 38.98-25.35 42.93-25.35 42.93-8.9Q42.93-6.15 44.33-4.7 45.73-3.25 48.13-3.25L48.13-3.25Q51.28-3.25 53.15-5.45 55.03-7.65 55.03-11.4L55.03-11.4ZM96.76-25.4L88.56-12.95 97.06 0 92.51 0 86.36-10 80.01 0 75.66 0 84.16-13 76.16-25.4 80.71-25.4 86.46-15.9 92.26-25.4 96.76-25.4ZM129.49-11.4L129.49-25.35 133.44-25.35 133.44 0 129.49 0 129.49-4.4Q127.49 0.3 121.54 0.3L121.54 0.3Q117.79 0.3 115.61-1.93 113.44-4.15 113.44-7.9L113.44-7.9 113.44-25.35 117.39-25.35 117.39-8.9Q117.39-6.15 118.79-4.7 120.19-3.25 122.59-3.25L122.59-3.25Q125.74-3.25 127.61-5.45 129.49-7.65 129.49-11.4L129.49-11.4ZM152.52-25.35L156.42-25.35 156.42-20.9Q158.42-25.6 163.32-25.6L163.32-25.6Q164.22-25.6 164.72-25.5L164.72-25.5 164.72-21.6Q163.67-21.95 162.57-21.95L162.57-21.95Q159.92-21.95 158.17-19.5 156.42-17.05 156.42-13.85L156.42-13.85 156.42 0 152.47 0 152.52-25.35ZM187.6-0.65L187.6-0.65 177.35-25.35 181.8-25.35 185.1-17 189.55-5.5Q189.95-6.8 193.55-17L193.55-17 196.5-25.35 200.75-25.35 191.6-0.65Q189.65 4.5 186.97 6.6 184.3 8.7 180.85 8.7L180.85 8.7Q179.55 8.7 178.75 8.45L178.75 8.45 178.75 4.9Q179.5 5.1 180.45 5.1L180.45 5.1Q185.5 5.1 187.6-0.65Z" fill="#21272d" data-fill-palette-color="primary"></path><path d="M288.833-33.7L293.183-33.7 281.433 0 276.333 0 264.933-33.7 269.283-33.7 273.683-20.35 278.933-3.65Q280.883-9.95 284.333-20.35L284.333-20.35 288.833-33.7ZM312.963-14.3L326.563-14.3 326.563-15.3Q326.563-18.45 324.863-20.33 323.163-22.2 320.163-22.2L320.163-22.2Q317.313-22.2 315.313-20.15 313.313-18.1 312.963-14.3L312.963-14.3ZM328.913-5L328.913-5 328.913-1.3Q325.963 0.25 321.713 0.25L321.713 0.25Q315.963 0.25 312.433-3.28 308.913-6.8 308.913-12.6L308.913-12.6Q308.913-18.65 312.063-22.15 315.213-25.65 320.163-25.65L320.163-25.65Q324.913-25.65 327.713-22.6 330.513-19.55 330.513-13.95L330.513-13.95Q330.513-12.35 330.263-11L330.263-11 312.963-11Q313.413-7.25 315.813-5.25 318.213-3.25 322.113-3.25L322.113-3.25Q326.363-3.25 328.913-5ZM348.293-35.35L352.193-35.35 352.193-20.95Q354.443-25.7 360.193-25.7L360.193-25.7Q363.843-25.7 366.063-23.45 368.293-21.2 368.293-17.35L368.293-17.35 368.293 0 364.343 0 364.343-16.4Q364.343-19.15 362.913-20.65 361.493-22.15 359.193-22.15L359.193-22.15Q356.393-22.15 354.293-20 352.193-17.85 352.193-13.85L352.193-13.85 352.193 0 348.293 0 348.293-35.35ZM391.223 0L387.273 0 387.273-25.35 391.223-25.35 391.223 0ZM387.393-31.48Q386.673-32.2 386.673-33.3 386.673-34.4 387.393-35.15 388.123-35.9 389.223-35.9 390.323-35.9 391.073-35.15 391.823-34.4 391.823-33.3 391.823-32.2 391.073-31.48 390.323-30.75 389.223-30.75 388.123-30.75 387.393-31.48ZM413.103-12.55L413.103-12.55Q413.153-8.45 415.603-5.73 418.053-3 422.553-3L422.553-3Q425.453-3 427.953-4.65L427.953-4.65 427.953-0.9Q425.553 0.55 422.053 0.55L422.053 0.55Q416.053 0.55 412.523-3.28 409.003-7.1 409.003-12.6L409.003-12.6Q409.003-18 412.523-21.9 416.053-25.8 422.153-25.8L422.153-25.8Q425.403-25.8 427.953-24.4L427.953-24.4 427.953-20.65Q425.653-22.2 422.553-22.2L422.553-22.2Q418.253-22.2 415.673-19.43 413.103-16.65 413.103-12.55ZM449.983 0L446.033 0 446.033-35.35 449.983-35.35 449.983 0ZM471.813-14.3L485.413-14.3 485.413-15.3Q485.413-18.45 483.713-20.33 482.013-22.2 479.013-22.2L479.013-22.2Q476.163-22.2 474.163-20.15 472.163-18.1 471.813-14.3L471.813-14.3ZM487.763-5L487.763-5 487.763-1.3Q484.813 0.25 480.563 0.25L480.563 0.25Q474.813 0.25 471.283-3.28 467.763-6.8 467.763-12.6L467.763-12.6Q467.763-18.65 470.913-22.15 474.063-25.65 479.013-25.65L479.013-25.65Q483.763-25.65 486.563-22.6 489.363-19.55 489.363-13.95L489.363-13.95Q489.363-12.35 489.113-11L489.113-11 471.813-11Q472.263-7.25 474.663-5.25 477.063-3.25 480.963-3.25L480.963-3.25Q485.213-3.25 487.763-5ZM520.943-24.5L520.943-24.5 520.943-20.75Q518.643-22.15 514.643-22.15L514.643-22.15Q512.643-22.15 511.463-21.23 510.293-20.3 510.293-18.85L510.293-18.85Q510.293-17.95 510.643-17.28 510.993-16.6 512.013-15.95 513.043-15.3 513.513-15.08 513.993-14.85 515.593-14.15L515.593-14.15Q518.793-12.85 520.593-11.2 522.393-9.55 522.393-6.75L522.393-6.75Q522.393-3.5 520.113-1.6 517.843 0.3 513.893 0.3L513.893 0.3Q509.293 0.3 506.443-1.25L506.443-1.25 506.443-5.1Q509.793-3.1 513.643-3.1L513.643-3.1Q515.943-3.1 517.143-4 518.343-4.9 518.343-6.45L518.343-6.45Q518.343-8.25 517.013-9.25 515.693-10.25 512.593-11.5L512.593-11.5Q509.743-12.6 508.013-14.25 506.293-15.9 506.293-18.7L506.293-18.7Q506.293-21.85 508.663-23.73 511.043-25.6 514.593-25.6L514.593-25.6Q518.543-25.6 520.943-24.5Z" fill="#ff2840" data-fill-palette-color="accent"></path></g></svg></g></svg></g></svg></g></svg></g><g transform="matrix(1,0,0,1,92.6545152,0)"><svg viewBox="0 0 210.21096959999997 63.50027762215093" height="63.50027762215093" width="210.21096959999997"><g><svg xmlns="http://www.w3.org/2000/svg" xmlns:xlink="http://www.w3.org/1999/xlink" version="1.1" x="8" y="0" viewBox="1.0998189332472863 33.025000000000006 97.79282509137069 31.974875340700052" enable-background="new 0 0 100 100" xml:space="preserve" height="63.50027762215093" width="194.21096959999997" class="icon-icon-0" data-fill-palette-color="accent" id="icon-0"><g fill="#ff2840" data-fill-palette-color="accent"><path d="M29.683 56.578c-0.344-4.075-3.804-7.309-8.498-6.769-2.118 0.243-3.75 1.368-4.743 2.569-0.969 1.172-1.911 3.193-1.729 5.534 0.281 3.608 3.155 6.501 6.818 6.768 2.299 0.168 4.172-0.609 5.632-1.878C28.634 61.524 29.915 59.326 29.683 56.578zM27.064 56.677c-1.038-0.197-2.4-0.069-2.865-0.84 0.494-0.675 0.825-1.513 1.334-2.174C26.439 54.239 26.982 55.44 27.064 56.677zM25.138 53.169c-0.474 0.86-1.09 1.579-1.582 2.421-0.133-0.032-0.188-0.141-0.296-0.198 0.486-0.813 0.959-1.643 1.482-2.42C24.928 52.983 24.952 53.157 25.138 53.169zM24.298 52.725c-0.202 0.282-0.456 0.647-0.791 1.037-0.337 0.392-0.663 1.069-1.334 0.89-0.466-0.721-1.002-1.37-1.333-2.225C21.958 52.086 23.444 52.249 24.298 52.725zM20.246 52.725c0.408 0.894 0.925 1.676 1.284 2.618-0.118 0.079-0.232 0.163-0.444 0.148-0.354-0.916-0.825-1.712-1.186-2.618C19.984 52.792 20.08 52.723 20.246 52.725zM19.406 53.219c0.149 0.279 0.325 0.688 0.494 1.136 0.245 0.651 0.691 1.237 0.147 1.68-0.856 0-1.712 0-2.568 0C17.782 54.756 18.408 53.801 19.406 53.219zM17.331 56.727c0.784 0.015 2.062-0.028 2.866 0.246-0.014 0.449-0.523 0.265-0.791 0.247-0.621-0.04-1.33-0.131-2.075-0.099C17.331 56.989 17.331 56.857 17.331 56.727zM18.862 60.63c-0.796-0.628-1.424-1.662-1.482-2.866 0.809-0.103 1.693 0.108 2.471 0.197 0.622 0.672-0.251 1.4-0.691 2.124C19.037 60.288 19.087 60.558 18.862 60.63zM19.356 61.073c0.427-0.873 1.021-1.58 1.532-2.37 0.219-0.038 0.17 0.192 0.296 0.246-0.423 0.861-1.009 1.56-1.481 2.372C19.58 61.246 19.408 61.22 19.356 61.073zM20.048 61.667c0.54-0.713 1.033-1.471 1.68-2.075 0.248-0.033 0.383 0.046 0.593 0.05 0.456 0.714 0.917 1.421 1.285 2.223C22.484 62.295 21.065 61.927 20.048 61.667zM24.199 61.618c-0.514-0.755-1.011-1.789-1.285-2.619 0.082-0.083 0.29-0.039 0.444-0.05 0.304 0.816 0.818 1.423 1.039 2.322-0.035 0.132 0.102 0.096 0.147 0.149C24.482 61.54 24.342 61.58 24.199 61.618zM25.138 61.124c-0.479-0.676-0.683-1.623-1.138-2.323 0.14-0.133 0.165-0.393 0.396-0.543 1.019-0.004 1.666-0.063 2.569 0C26.748 59.604 25.957 60.379 25.138 61.124zM27.042 57.631c-0.908 0.086-1.932 0.033-2.791-0.127 0.104-0.113 0.038-0.274 0.048-0.422 0.861 0.127 1.626-0.051 2.521 0.191 0.101 0.094 0.146-0.026 0.215-0.041C27.11 57.344 27.078 57.487 27.042 57.631z" fill="#ff2840" data-fill-palette-color="accent"></path></g><g fill="#ff2840" data-fill-palette-color="accent"><path d="M89.909 52.329c-1.475-1.508-3.521-2.562-6.472-2.224-1.104 0.127-1.779 0.439-2.52 0.841-2.053 1.109-3.694 3.009-3.903 5.879-0.333 4.58 2.975 7.872 6.818 8.152 4.474 0.325 7.848-2.855 8.151-6.867C92.178 55.576 91.058 53.501 89.909 52.329zM87.934 54.157c0.765 0.279-0.354 0.975-0.691 1.285-0.45 0.412-0.835 0.711-1.037 0.988-0.646-0.33 0.193-0.819 0.642-1.236C87.327 54.748 87.642 54.472 87.934 54.157zM87.538 53.762c-0.293 0.197-0.625 0.495-1.037 0.79-0.42 0.303-0.94 0.818-1.434 0.594-0.236-0.819-0.624-1.745-0.691-2.569C85.767 52.635 86.74 53.11 87.538 53.762zM83.833 52.477c0.042-0.009 0.046 0.021 0.049 0.05 0.084 0.704 0.481 1.495 0.396 2.471-0.016 0.175 0.081 0.485-0.198 0.494-0.401-0.818-0.485-1.952-0.741-2.915C83.442 52.644 83.748 52.583 83.833 52.477zM82.845 52.922c0.11 0.934 0.738 2.617-0.197 3.014-0.834-0.318-1.521-0.346-2.472-0.643C80.766 54.202 81.576 53.333 82.845 52.922zM79.93 55.788c1.02 0.265 1.978 0.592 2.965 0.889 0.038 0.204-0.076 0.254-0.05 0.444-1.034-0.299-2.034-0.635-3.062-0.938C79.848 56.067 79.863 55.902 79.93 55.788zM79.683 56.776c0.397-0.02 0.849 0.16 1.433 0.395 0.758 0.304 1.308 0.417 1.285 1.136-0.692 0.543-1.153 1.318-1.928 1.778C79.939 59.262 79.618 58.042 79.683 56.776zM81.214 61.024c-0.13-0.117-0.298-0.196-0.346-0.395 0.78-0.621 1.478-1.322 2.224-1.977 0.197-0.016 0.134 0.229 0.296 0.247C82.746 59.691 81.905 60.282 81.214 61.024zM81.709 61.321c0.521-0.615 1.251-1.021 1.827-1.581 0.13 0.101 0.364 0.097 0.495 0.197 0.22 0.784 0.505 1.504 0.69 2.322C83.412 62.253 82.444 61.902 81.709 61.321zM85.512 62.112c-0.308-0.222-0.263-0.724-0.346-1.137-0.087-0.444-0.22-0.848-0.246-1.334 0-0.05 0-0.1 0-0.148 0.132 0 0.263 0 0.396 0 0.103 0.901 0.364 1.646 0.444 2.569C85.619 62.021 85.631 62.132 85.512 62.112zM86.402 61.815c-0.274-0.753-0.367-1.599-0.444-2.372 0.686-0.829 1.729 0.06 2.667 0.198C88.169 60.65 87.367 61.314 86.402 61.815zM88.921 59.098c-0.881-0.255-1.756-0.516-2.568-0.84 0-0.1 0-0.197 0-0.297 1.069-0.095 1.782 0.542 2.717 0.742C88.998 58.812 88.919 58.915 88.921 59.098zM89.218 58.208c-0.812-0.241-1.471-0.637-2.272-0.89-0.393-0.7 0.161-0.907 0.643-1.433 0.38-0.415 0.584-0.729 0.89-0.938C89.055 55.706 89.247 56.993 89.218 58.208z" fill="#ff2840" data-fill-palette-color="accent"></path></g><path d="M98.547 56.95c0 0-0.001-0.136-0.002-0.365h0.335v-3.511h-0.344c0-0.001 0-0.004 0-0.005-1.692-1.521-1.245-5.232-3.31-6.384 0.047-0.216 0.074-0.477 0.074-0.757 0-0.738-0.186-1.337-0.413-1.337-0.229 0-0.413 0.599-0.413 1.337 0 0.17 0.011 0.331 0.028 0.481-4.729-2.008-10.321-2.644-16.003-3.508-1.946-0.296-3.963-0.83-5.835-0.833-2.777-0.006-4.189-0.971-6.53-2.223-4.753-2.543-9.315-5.358-15.13-6.259-0.325-0.05-0.655-0.094-0.987-0.132-6.949-0.901-14.878-0.238-21.258 0.694-0.519-0.129-0.723-1.103-1.353-1.123-0.261 0.321 0.558 1.345-0.037 1.54-7.435 1.92-13.688 5.493-22.585 5.951-1.207 1.367-0.704 4.158-1.591 6.415-0.427 1.087-1.435 1.827-1.667 2.779-0.232 0.951-0.477 3.062-0.417 3.474 0.221 1.506 1.9 2.004 1.946 3.611 3.997 0.217 7.253 0.714 10.56 1.39-0.189-6.241 3.933-10.422 10.003-9.586 5.071 0.697 7.523 5.313 7.502 11.254h18.896c0.336 0.002 0.651 0.003 0.987 0.006 8.353 0.063 16.478 0.374 24.855 0.411-0.243-6.796 3.366-12.114 9.726-11.394 4.407 0.499 7.549 4.917 7.086 10.004-0.062 0.699-0.458 1.114-0.139 1.667 1.361-0.596 5.927-0.177 6.252-1.945C98.875 58.118 99.061 57.495 98.547 56.95zM11.345 44.808c-0.082 0.092-3.825 3.241-4.758 3.568-0.933 0.326-2.053 0.233-2.053 0.233s0.024-3.849 1.423-5.155c0 0 3.592 0.14 4.431 0.374 0.839 0.232 0.985 0.539 1.026 0.629C11.456 44.548 11.425 44.715 11.345 44.808zM90.172 47.21c3.25-0.539 5.793 0.825 6.114 3.889C94.029 49.918 92.328 48.527 90.172 47.21z" fill="#ff2840" data-fill-palette-color="accent"></path></svg></g></svg></g><g><rect width="14.080724149756591" height="5.223861475438514" y="57.27641614671242" x="302.8654848" fill="#ff2840" data-fill-palette-color="accent"></rect><rect width="14.080724149756591" height="5.223861475438514" y="57.27641614671242" x="78.57379105024341" fill="#ff2840" data-fill-palette-color="accent"></rect><rect width="14.080724149756591" height="5.223861475438514" y="46.82869319583539" x="302.8654848" fill="#ff2840" data-fill-palette-color="accent"></rect><rect width="14.080724149756591" height="5.223861475438514" y="46.82869319583539" x="78.57379105024341" fill="#ff2840" data-fill-palette-color="accent"></rect></g></svg></g></svg></g></svg></g><defs></defs></svg><rect width="395.52" height="247.2" fill="none" stroke="none" visibility="hidden"></rect></g></svg></g></svg>